<svg xmlns="http://www.w3.org/2000/svg" class="bi bi-type-h1" fill="currentColor" viewBox="0 0 16 16">
    <path d="m13.919,-0.28826z"/>
    <path d="m11.98973,10.29943l-2.22259,-2.5405c-0.26229,-0.29891 -0.04912,-0.76836 0.34896,-0.76836l4.44518,0a0.46342,0.46342 0 0 1 0.34896,0.76882l-2.22259,2.53958a0.46342,0.46342 0 0 1 -0.69792,0l0,0.00047l0,-0.00001z"/>
    <path d="m9.08997,13.27507l0,-10.60976l-1.4304,0l0,4.49246l-5.25428,0l0,-4.49132l-1.4304,0l0,10.60862l1.4304,0l0,-4.85745l5.25314,0l0,4.85745l1.43154,0z"/>
</svg>