<svg t="1641608361366" class="icon" viewBox="0 0 1024 1024" version="1.1" xmlns="http://www.w3.org/2000/svg" p-id="5604">
    <path d="M213.333333 153.6a81.066667 81.066667 0 0 0-81.066666 81.066667v170.666666c0 44.8 36.266667 81.066667 81.066666 81.066667h597.333334a81.066667 81.066667 0 0 0 81.066666-81.066667v-170.666666A81.066667 81.066667 0 0 0 810.666667 153.6H213.333333z m-4.266666 81.066667a4.266667 4.266667 0 0 1 4.266666-4.266667h597.333334a4.266667 4.266667 0 0 1 4.266666 4.266667v170.666666a4.266667 4.266667 0 0 1-4.266666 4.266667H213.333333a4.266667 4.266667 0 0 1-4.266666-4.266667v-170.666666zM153.6 640a38.4 38.4 0 0 1 38.4-38.4h640a38.4 38.4 0 1 1 0 76.8h-640a38.4 38.4 0 0 1-38.4-38.4zM153.6 832a38.4 38.4 0 0 1 38.4-38.4h426.666667a38.4 38.4 0 1 1 0 76.8h-426.666667a38.4 38.4 0 0 1-38.4-38.4z" p-id="5605"></path>
</svg>