<svg xmlns="http://www.w3.org/2000/svg" viewBox="0 0 211.94 160.11">
    <defs>
        <style>
            .cls-1,
            .cls-5 {
                fill: #4f4f4f;
                stroke-miterlimit: 10;
            }

            .cls-1,
            .cls-2,
            .cls-3,
            .cls-5 {
                stroke: #4f4f4f;
            }

            .cls-2,
            .cls-6 {
                fill: #d8d0bf;
            }

            .cls-2,
            .cls-3 {
                stroke-linejoin: round;
                stroke-width: 7px;
            }

            .cls-3 {
                fill: #ffd9b3;
            }

            .cls-4 {
                fill: #87c4c4;
            }

            .cls-5 {
                font-size: 14.83px;
                stroke-width: 0.5px;
                font-family: TimesNewRomanPSMT, Times New Roman;
                letter-spacing: -0.02em;
            }

            .cls-7 {
                fill: #bab7b5;
            }

            .cls-8 {
                fill: #fff7eb;
            }

            .cls-9 {
                fill: #e0d7d3;
            }
        </style>
    </defs>
    <g id="图层_1" data-name="图层 1">
        <path class="cls-1"
            d="M381,42.87H338.18c-6.34,0-11.49,7-11.49,15.7s5.15,15.7,11.49,15.7a8.8,8.8,0,0,0,1.26-.1h40.29a8.68,8.68,0,0,0,1.26.1c6.34,0,11.48-7,11.48-15.7S387.33,42.87,381,42.87Zm-3.05,27.35a9.3,9.3,0,0,1-1.07-.07H342.55a9.45,9.45,0,0,1-1.07.07c-5.4,0-9.78-5-9.78-11.25s4.38-11.25,9.78-11.25h36.46c5.4,0,9.78,5,9.78,11.25S383.34,70.22,377.94,70.22Z"
            transform="translate(-253.63 -42.37)" />
        <path class="cls-2" d="M453.75,92H265.44l.11.7L279.77,199H439.42l14.22-106.3Z"
            transform="translate(-253.63 -42.37)" />
        <rect class="cls-1" x="3.5" y="82.15" width="90.71" height="6.3" />
        <rect class="cls-1" x="117.7" y="82.56" width="90.71" height="6.3" />
        <path class="cls-3"
            d="M462,80.54c-.75-8.85-10.59-19.13-24.39-19.41H281.94c-13.71,0-24.81,8.83-24.81,19.71v47.34l204.91-.1S462.1,81.34,462,80.54Z"
            transform="translate(-253.63 -42.37)" />
        <polygon class="cls-1"
            points="115.2 69.33 96.71 69.33 87.47 85.8 96.71 102.28 115.2 102.28 124.44 85.8 115.2 69.33" />
        <polygon class="cls-4"
            points="111.91 75.2 100.01 75.2 94.06 85.8 100.01 96.41 111.91 96.41 117.86 85.8 111.91 75.2" /><text
            class="cls-5" transform="translate(98.9 91.27) scale(0.97 1)">W</text>
        <path class="cls-1"
            d="M312.93,144.61c1,0,1.76-1.78,1.78-3.94V115.54c0-2.21-.81-4-1.8-4h-8.65c-1,0-1.76,1.78-1.77,3.94v25.13c0,2.21.81,4,1.8,4h8.65Z"
            transform="translate(-253.63 -42.37)" />
        <path class="cls-1"
            d="M409.59,144.2c1,0,1.76-1.78,1.78-3.94V115.13c0-2.21-.81-4-1.8-4h-8.65c-1,0-1.76,1.77-1.77,3.93v25.13c0,2.21.81,4,1.8,4h8.65Z"
            transform="translate(-253.63 -42.37)" />
        <path class="cls-6"
            d="M272.49,71.11c1.53-3.33,3.44-5.22,3-5.62-.18-.17-.62.11-2.51.85-1.32.51-1.91.68-2.34.85A17.52,17.52,0,0,0,263,73.7a16,16,0,0,0-2.26,9.14V124.6h9.62v-42h-.13c0-.38,0-.94,0-1.62A27.15,27.15,0,0,1,272.49,71.11Z"
            transform="translate(-253.63 -42.37)" />
        <polygon class="cls-7" points="20.69 89.3 29.09 152.66 37.26 152.66 27.73 89.3 20.69 89.3" />
        <path class="cls-8"
            d="M446.59,71.27c-1.53-3.31-3.44-5.2-3-5.59.18-.17.62.11,2.51.85,1.31.51,1.91.68,2.34.84a17.55,17.55,0,0,1,7.7,6.48,15.89,15.89,0,0,1,2.26,9.09v41.53h-9.62V82.69h.13c0-.37,0-.93,0-1.6A26.9,26.9,0,0,0,446.59,71.27Z"
            transform="translate(-253.63 -42.37)" />
        <polygon class="cls-9" points="191.15 89.3 182.75 152.66 174.57 152.66 184.11 89.3 191.15 89.3" />
    </g>
</svg>