<svg t="1656509450794" fill="currentColor" class="icon" viewBox="0 0 1024 1024" version="1.1" xmlns="http://www.w3.org/2000/svg" p-id="1601">
<path d="M129.241744 42.645762c-29.801862 0-54.08486 22.878197-54.08486 51.174914V930.179324c0 28.196374 24.182656 51.174914 54.08486 51.174914 29.801862 0 54.08486-22.878197 54.084861-51.174914V93.820676c-0.100343-28.196374-24.282999-51.174914-54.084861-51.174914zM880.609897 42.645762H306.046056c-37.728956 0-68.233219 31.10632-68.233219 69.437335v799.733464c0 38.331014 30.604606 69.437335 68.233219 69.437334h574.563841c37.728956 0 68.233219-31.10632 68.233219-69.437334v-799.733464c0-38.331014-30.604606-69.437335-68.233219-69.437335z m-334.543459 451.543361L435.187457 383.310142 324.208133 494.189123V135.86438h221.858305v358.324743z" p-id="1602"></path>
</svg>