<svg t="1646099370949" class="icon" viewBox="0 0 1024 1024" version="1.1" xmlns="http://www.w3.org/2000/svg" p-id="2075" fill="currentColor">
<path d="M860.416 438.016l72.874667 72.32a13.290667 13.290667 0 0 1 0 18.858667l-41.152 40.938666a13.290667 13.290667 0 0 1-18.709334 0l-72.874666-72.32A212.330667 212.330667 0 0 1 682.666667 533.333333c-117.824 0-213.333333-95.509333-213.333334-213.333333S564.842667 106.666667 682.666667 106.666667s213.333333 95.509333 213.333333 213.333333a212.330667 212.330667 0 0 1-35.584 118.016zM682.666667 448a128 128 0 1 0 0-256 128 128 0 0 0 0 256zM85.333333 192h277.333334a21.333333 21.333333 0 0 1 21.333333 21.333333v42.666667a21.333333 21.333333 0 0 1-21.333333 21.333333H85.333333a21.333333 21.333333 0 0 1-21.333333-21.333333v-42.666667a21.333333 21.333333 0 0 1 21.333333-21.333333z m0 213.333333h277.333334a21.333333 21.333333 0 0 1 21.333333 21.333334v42.666666a21.333333 21.333333 0 0 1-21.333333 21.333334H85.333333a21.333333 21.333333 0 0 1-21.333333-21.333334v-42.666666a21.333333 21.333333 0 0 1 21.333333-21.333334z m0 213.333334h853.333334a21.333333 21.333333 0 0 1 21.333333 21.333333v42.666667a21.333333 21.333333 0 0 1-21.333333 21.333333H85.333333a21.333333 21.333333 0 0 1-21.333333-21.333333v-42.666667a21.333333 21.333333 0 0 1 21.333333-21.333333z m0 213.333333h853.333334a21.333333 21.333333 0 0 1 21.333333 21.333333v42.666667a21.333333 21.333333 0 0 1-21.333333 21.333333H85.333333a21.333333 21.333333 0 0 1-21.333333-21.333333v-42.666667a21.333333 21.333333 0 0 1 21.333333-21.333333z" p-id="2076"></path>
</svg>