<svg viewBox="0 0 1024 1024" xmlns="http://www.w3.org/2000/svg" fill="currentColor">
<path d="M511.707334 958.890097c-60.402695 0-119.008464-11.834536-174.191274-35.175127-53.290717-22.539342-101.144608-54.803163-142.235468-95.893001-41.09086-41.09086-73.353658-88.945775-95.894024-142.235468C76.045977 630.40369 64.211441 571.796898 64.211441 511.394203s11.834536-119.009488 35.175127-174.192298c22.540366-53.289694 54.803163-101.144608 95.894024-142.235468 41.09086-41.09086 88.945775-73.354682 142.235468-95.894024C392.697847 75.732845 451.304639 63.898309 511.707334 63.898309c60.402695 0 119.009488 11.834536 174.192298 35.175127 53.289694 22.539342 101.145631 54.803163 142.235468 95.893001 41.09086 41.09086 73.354682 88.945775 95.894024 142.235468 23.340591 55.18281 35.175127 113.789603 35.175127 174.192298s-11.834536 119.009488-35.175127 174.192298c-22.539342 53.289694-54.803163 101.144608-95.894024 142.235468-41.089837 41.089837-88.945775 73.353658-142.235468 95.893001C630.715799 947.05556 572.110029 958.890097 511.707334 958.890097zM511.707334 104.830557c-54.895261 0-108.135836 10.746762-158.246117 31.94148-48.411593 20.476357-91.892897 49.79408-129.237433 87.137593-37.344536 37.34556-66.662259 80.826863-87.138616 129.237433-21.194718 50.110281-31.94148 103.351879-31.94148 158.24714 0 54.895261 10.746762 108.136859 31.94148 158.24714 20.476357 48.41057 49.79408 91.892897 87.138616 129.237433s80.82584 66.662259 129.237433 87.137593c50.110281 21.194718 103.351879 31.94148 158.246117 31.94148s108.136859-10.746762 158.24714-31.94148c48.411593-20.476357 91.892897-49.793056 129.237433-87.137593s66.663282-80.826863 87.138616-129.237433c21.194718-50.110281 31.94148-103.351879 31.94148-158.24714 0-54.895261-10.746762-108.136859-31.94148-158.24714-20.476357-48.41057-49.79408-91.891873-87.138616-129.23641s-80.82584-66.662259-129.237433-87.138616C619.84317 115.577319 566.601572 104.830557 511.707334 104.830557zM536.38027 748.161674 536.38027 356.626303 724.507952 545.072233 752.551658 517.051039 511.700171 275.838326 270.849708 517.051039 298.892391 545.072233 487.510236 356.13614 487.510236 748.161674Z" p-id="3316"></path>
</svg>